<svg xmlns="http://www.w3.org/2000/svg" width="560.671" height="405.674" viewBox="0 0 560.671 405.674">
  <path id="open-book-icon" d="M54.753,309.22q.913-146.131,1.779-291.842c.051-6.447,5.039-11.961,11.909-13.166h0c38.327-7.361,98.738-5.51,139.757,9,28.887,9.616,54.208,26.613,73,49a171.178,171.178,0,0,1,73-46.9c38.738-13.629,97.506-16.91,139.62-11.1,7.186.9,12.569,6.523,12.639,13.208h0v293.02a13,13,0,0,1-4.338,9.55,15.312,15.312,0,0,1-10.4,3.91,17.2,17.2,0,0,1-3.376-.379,263.544,263.544,0,0,0-107,9.212A334.374,334.374,0,0,0,309.4,367.479a340.039,340.039,0,0,1,96.913-13.04,618.248,618.248,0,0,1,125.065,14.638V62.429h14.646c8.089,0,14.646,6.045,14.646,13.5V386.744c0,7.457-6.557,13.5-14.646,13.5a15.626,15.626,0,0,1-4.563-.715,599.513,599.513,0,0,0-135.377-18.214,303.065,303.065,0,0,0-117.537,22.126,16.581,16.581,0,0,1-16.608,0A302.918,302.918,0,0,0,154.4,381.318a599.473,599.473,0,0,0-135.057,18.3,15.624,15.624,0,0,1-4.563.715,15.311,15.311,0,0,1-10.478-3.94A12.986,12.986,0,0,1,0,386.744V75.931c0-7.457,6.557-13.5,14.646-13.5H29.293V369.077a618.243,618.243,0,0,1,125.065-14.638,338.514,338.514,0,0,1,103.62,15.017,228.6,228.6,0,0,0-70.905-35.5c-31.939-9.675-80.669-12.914-116.3-10.1a15.5,15.5,0,0,1-10.8-3.073,13.2,13.2,0,0,1-5.211-9.251,19.392,19.392,0,0,1,0-2.314ZM336,270.9a11.238,11.238,0,0,1-10.833.954,9.669,9.669,0,0,1-5.926-8.414,9.55,9.55,0,0,1,5.352-8.735,244.716,244.716,0,0,1,53.84-22.715,263.363,263.363,0,0,1,59.316-11.231c5.771-.29,10.7,3.787,11.019,9.107s-4.108,9.868-9.878,10.159A242.172,242.172,0,0,0,385.1,250.372,222.356,222.356,0,0,0,336,270.9Zm.913-74.706a11,11,0,0,1-14.441-2.965,9.209,9.209,0,0,1,3.217-13.313,250.892,250.892,0,0,1,53.567-22.294A265.291,265.291,0,0,1,437.568,146.6c5.643-.089,10.351,3.952,10.658,9.147s-3.9,9.684-9.518,10.16A241.634,241.634,0,0,0,385.644,176a228.538,228.538,0,0,0-48.73,20.191Zm.274-74.454a11.038,11.038,0,0,1-14.487-3.008,9.245,9.245,0,0,1,3.262-13.355,250.15,250.15,0,0,1,53.475-22.168,263.3,263.3,0,0,1,58.129-10.937c5.771-.29,10.7,3.787,11.019,9.107s-4.108,9.868-9.878,10.159a241.882,241.882,0,0,0-52.882,10.053,228.117,228.117,0,0,0-48.639,20.149ZM236.077,254.7a9.55,9.55,0,0,1,5.352,8.735,9.669,9.669,0,0,1-5.926,8.414,11.238,11.238,0,0,1-10.832-.954,222.3,222.3,0,0,0-48.913-20.527,242.173,242.173,0,0,0-53.795-10.348c-5.771-.314-10.173-4.881-9.833-10.2s5.294-9.378,11.065-9.065A263.362,263.362,0,0,1,182.51,231.99a244.721,244.721,0,0,1,53.84,22.715Zm-1.1-74.79a9.247,9.247,0,0,1,3.125,13.4,11.058,11.058,0,0,1-14.532,2.881A228.541,228.541,0,0,0,174.845,176a241.635,241.635,0,0,0-53.065-10.1c-5.783-.36-10.155-4.974-9.764-10.306s5.4-9.362,11.179-9a265.289,265.289,0,0,1,58.312,11.021,250.892,250.892,0,0,1,53.567,22.294Zm-.274-74.538A9.341,9.341,0,0,1,234.4,122.5a11.247,11.247,0,0,1-10.82-.761,228.113,228.113,0,0,0-48.639-20.149,241.885,241.885,0,0,0-52.882-10.053c-5.771-.29-10.193-4.839-9.878-10.159s5.248-9.4,11.019-9.107a263.3,263.3,0,0,1,58.129,10.937A250.149,250.149,0,0,1,234.8,105.376ZM477.081,29.45c-33.856-2.944-82.4.5-112.837,11.147-28.291,9.143-52.545,26.6-69.034,49.678V343.754A361.827,361.827,0,0,1,371.5,307.327a309.607,309.607,0,0,1,105.582-12.072Zm-211.164,311.7V89.9c-15.331-24.944-40.107-41.6-68.122-51.487-31.939-11.231-80.989-13.755-112.061-9.675L84.092,296.1c33.9-1.136,80.715,2.86,111.879,12.241a259.261,259.261,0,0,1,69.947,32.81Z" transform="translate(0 0.002)" fill="#fff"/>
</svg>
