<svg xmlns="http://www.w3.org/2000/svg" width="377.331" height="460.785" viewBox="0 0 377.331 460.785">
  <path id="task-user-icon" d="M83.76,35.482h41.533C127.734,15.471,143.881,0,163.468,0c19.461,0,35.527,15.264,38.129,35.067l42.11.414a4.224,4.224,0,0,1,4.233,4.242V86.408a4.216,4.216,0,0,1-4.233,4.233H83.805a4.247,4.247,0,0,1-4.242-4.233V39.723a4.171,4.171,0,0,1,4.2-4.242ZM283.647,273.426A93.68,93.68,0,1,1,189.971,367.1,93.676,93.676,0,0,1,283.647,273.426Zm-22.469,74.4a4.744,4.744,0,0,1,3.179-4.3c-.216-3.71-.675-9.3.342-12.878a15.751,15.751,0,0,1,7.024-8.934,20.922,20.922,0,0,1,3.818-1.819c2.422-.883,1.225-4.944,3.872-5,6.187-.153,16.363,5.5,20.325,9.8a15.692,15.692,0,0,1,4.052,10.185l-.252,9.069a3.534,3.534,0,0,1,2.6,2.215c1.324,5.34-11.689,17.948-11.689,19.308a2.106,2.106,0,0,0,.522,1.252c9.023,12.41,33.347,6.871,33.347,31.546l-89.353.009c0-24.693,24.333-19.137,33.356-31.546.441-.648.648-1.009.639-1.3,0-1.2-11.788-13.256-11.788-17.615ZM37.58,53.385H59.13V75.331H37.58A15.681,15.681,0,0,0,21.955,90.947V375.089A15.712,15.712,0,0,0,37.58,390.722H166.008a119.273,119.273,0,0,0,6.637,21.955H37.58A37.727,37.727,0,0,1,0,375.089V90.947A37.665,37.665,0,0,1,37.58,53.385ZM305.53,249.12V90.947a15.635,15.635,0,0,0-15.625-15.616H268.364V53.385h21.541a37.774,37.774,0,0,1,37.58,37.562V255.4A118.15,118.15,0,0,0,305.53,249.12Zm-186.18-7.258a11.64,11.64,0,0,1,0-23.279H247.967a11.64,11.64,0,0,1,0,23.279H119.35ZM80.6,217.222a13,13,0,1,1-12.995,13A13,13,0,0,1,80.6,217.222Zm0,70.8a13,13,0,1,1-12.995,13A13,13,0,0,1,80.6,288.024Zm38.76,24.639a11.64,11.64,0,1,1,0-23.279h72.909a120.6,120.6,0,0,0-15.544,23.279ZM80.6,146.439A13,13,0,1,1,67.6,159.434,13,13,0,0,1,80.6,146.439Zm38.751,24.63a11.64,11.64,0,0,1,0-23.279H247.967a11.64,11.64,0,0,1,0,23.279ZM163.027,18.155A20.046,20.046,0,1,1,142.981,38.21a20.041,20.041,0,0,1,20.046-20.055Z" fill="#fff" fill-rule="evenodd"/>
</svg>
